# xmcd
# 
# Track frame offsets:
#     150
#     12372
#     22177
#     32857
#     43830
#     53510
#     64505
#     75510
#     84860
#     93677
#     103977
#     111952
# 
# Disc length: 1624
# 
# Revision: 2
# Processed by: cddbd v1.5.2PL0 Copyright (c) Steve Scherf et al.
# Submitted via: fre:ac v1.0.31
# 
DISCID=9506560c
DTITLE=THE NEATBEATS - EVERYBODY NEED!
DYEAR=2000
DGENRE=Rock
TTITLE0=HEY LITTLE GIRL
TTITLE1=GOOD GOOD LOVIN’
TTITLE2=CANDY MAN
TTITLE3=TWISTIN’ DAY
TTITLE4=WRITE BACK
TTITLE5=BABY LET’S GET SHAKE
TTITLE6=LITTLE BITTY PRETTY ONE
TTITLE7=EVERYBODY NEED THAT
TTITLE8=HAPPY WITH YOU BABY
TTITLE9=SAVE THE LAST DANCE
TTITLE10=LAWDY MISS CLAWDY
TTITLE11=そんなもんさ
EXTD=
EXTT0=
EXTT1=
EXTT2=
EXTT3=
EXTT4=
EXTT5=
EXTT6=
EXTT7=
EXTT8=
EXTT9=
EXTT10=
EXTT11=
PLAYORDER=
